:FULLY-SPECIFIED
:FORCE-ALL-JOINTS-BE-3DOF
:DEGREES
679
root 5.36538 16.0187 0.743592 15.9983 -20.9591 0.24342
lfemur -34.9608 28.0639 -11.0161
ltibia 101.618 0 0
lfoot 13.6872 -13.9566 0
ltoes 4.62296 0 0
rfemur -40.5805 -13.1013 27.056
rtibia 63.8517 0 0
rfoot -25.8238 -6.27541 0
rtoes 1.73281 0 0
lowerback 0.472314 -6.74064 -0.25206
upperback -1.90707 -8.98583 0.925825
thorax -2.0345 -4.48015 1.28107
lowerneck -9.39051 -3.89263 0.520207
upperneck 2.20775 -5.3744 2.37505
head 2.36983 -2.59799 0.402335
lclavicle -1.99167e-14 -9.18036e-15 0
lhumerus 10.9899 -63.0561 60.3221
lradius 90.4993 0 0
lwrist 29.8581 0 0
lhand -13.4991 -0.824765 0
lfingers 7.12502 0 0
lthumb 12.6125 28.7813 0
rclavicle -1.99167e-14 -9.18036e-15 0
rhumerus -47.8726 -9.82207 -45.0266
rradius 76.1684 0 0
rwrist -20.0564 0 0
rhand -26.8926 -47.2705 0
rfingers 7.12502 0 0
rthumb -0.316428 -797.257 0
680
root 5.35427 16.073 0.907476 15.6801 -22.757 0.138966
lfemur -37.0101 27.8369 -7.91014
ltibia 107.596 0 0
lfoot 16.664 -17.069 0
ltoes 7.07416 0 0
rfemur -38.7793 -11.9867 26.322
rtibia 62.4727 0 0
rfoot -25.9447 -5.8732 0
rtoes 1.6758 0 0
lowerback 0.911912 -6.76488 -0.225999
upperback -1.86275 -9.01919 0.834356
thorax -2.25312 -4.49537 1.23067
lowerneck -9.1329 -3.78062 0.559571
upperneck 2.42321 -5.23034 2.36324
head 2.39203 -2.52489 0.402164
lclavicle -4.19711e-14 -1.37669e-14 0
lhumerus 15.3297 -60.6926 53.5418
lradius 91.5602 0 0
lwrist 30.3771 0 0
lhand -14.0108 -1.01612 0
lfingers 7.12502 0 0
lthumb 12.1191 28.6189 0
rclavicle -4.19711e-14 -1.37669e-14 0
rhumerus -46.8056 -8.96997 -43.4786
rradius 79.0365 0 0
rwrist -20.0143 0 0
rhand -26.7844 -46.9894 0
rfingers 7.12502 0 0
rthumb -0.211927 -796.977 0
681
root 5.34346 16.1468 1.07926 15.3555 -24.6531 0.0724397
lfemur -38.9984 27.4961 -4.71945
ltibia 113.265 0 0
lfoot 19.2529 -19.7921 0
ltoes 9.65505 0 0
rfemur -36.8291 -10.8744 25.5373
rtibia 60.6466 0 0
rfoot -25.6827 -5.42751 0
rtoes 1.64175 0 0
lowerback 1.34604 -6.76028 -0.240825
upperback -1.81889 -9.01636 0.710663
thorax -2.46861 -4.49233 1.16728
lowerneck -8.86298 -3.68937 0.587592
upperneck 2.64132 -5.11527 2.39121
head 2.41542 -2.46529 0.415522
lclavicle -6.26275e-14 -1.76883e-14 0
lhumerus 19.4594 -58.157 46.908
lradius 92.4218 0 0
lwrist 30.8528 0 0
lhand -14.5417 -1.23631 0
lfingers 7.12502 0 0
lthumb 11.607 28.4266 0
rclavicle -6.26275e-14 -1.76883e-14 0
rhumerus -45.7065 -8.16691 -41.8121
rradius 81.9142 0 0
rwrist -19.8744 0 0
rhand -26.7588 -46.6742 0
rfingers 7.12502 0 0
rthumb -0.18719 -796.661 0
682
root 5.33343 16.2463 1.25967 15.0426 -26.6334 0.060444
lfemur -40.8233 27.0159 -1.5689
ltibia 118.252 0 0
lfoot 21.245 -21.8021 0
ltoes 12.1928 0 0
rfemur -34.7039 -9.77754 24.6785
rtibia 58.2214 0 0
rfoot -24.8726 -4.91434 0
rtoes 1.62575 0 0
lowerback 1.73654 -6.7157 -0.291873
upperback -1.78131 -8.96339 0.552396
thorax -2.66618 -4.46429 1.08039
lowerneck -8.59313 -3.62996 0.600349
upperneck 2.85014 -5.04423 2.46594
head 2.4387 -2.42669 0.444527
lclavicle -7.93573e-14 -2.02595e-14 0
lhumerus 23.1252 -55.5128 40.7865
lradius 92.9529 0 0
lwrist 31.2366 0 0
lhand -15.1037 -1.50474 0
lfingers 7.12502 0 0
lthumb 11.0649 28.1857 0
rclavicle -7.93573e-14 -2.02595e-14 0
rhumerus -44.6365 -7.50383 -39.9893
rradius 84.6482 0 0
rwrist -19.6069 0 0
rhand -26.8603 -46.3211 0
rfingers 7.12502 0 0
rthumb -0.285181 -796.306 0
683
root 5.32467 16.3782 1.4507 14.7625 -28.6903 0.120972
lfemur -42.375 26.3693 1.40168
ltibia 122.147 0 0
lfoot 22.4235 -22.7324 0
ltoes 14.4748 0 0
rfemur -32.3629 -8.70221 23.7112
rtibia 55.0168 0 0
rfoot -23.3267 -4.30138 0
rtoes 1.61909 0 0
lowerback 2.03794 -6.61885 -0.369693
upperback -1.75724 -8.8449 0.35795
thorax -2.82876 -4.40391 0.956672
lowerneck -8.33803 -3.6143 0.593916
upperneck 3.03588 -5.03343 2.59357
head 2.46024 -2.41719 0.490955
lclavicle -8.91549e-14 -2.06736e-14 0
lhumerus 26.0518 -52.833 35.5808
lradius 93.0058 0 0
lwrist 31.4726 0 0
lhand -15.7158 -1.84665 0
lfingers 7.12502 0 0
lthumb 10.4744 27.8724 0
rclavicle -8.91549e-14 -2.06736e-14 0
rhumerus -43.6678 -7.08832 -37.9536
rradius 87.0646 0 0
rwrist -19.1796 0 0
rhand -27.1402 -45.9249 0
rfingers 7.12502 0 0
rthumb -0.555473 -795.904 0
684
root 5.32355 16.3988 1.47615 14.7291 -28.9593 0.138412
lfemur -42.5485 26.2695 1.77602
ltibia 122.533 0 0
lfoot 22.4739 -22.7175 0
ltoes 14.7476 0 0
rfemur -32.0207 -8.56349 23.5736
rtibia 54.4806 0 0
rfoot -23.0311 -4.20029 0
rtoes 1.61244 0 0
lowerback 2.06607 -6.60049 -0.384383
upperback -1.7558 -8.82236 0.327015
thorax -2.84558 -4.39254 0.935657
lowerneck -8.30565 -3.61772 0.590887
upperneck 3.05889 -5.03967 2.61802
head 2.46326 -2.41959 0.499532
lclavicle -8.96013e-14 -2.0455e-14 0
lhumerus 26.3513 -52.4758 35.0096
lradius 92.9609 0 0
lwrist 31.4849 0 0
lhand -15.803 -1.9026 0
lfingers 7.12502 0 0
lthumb 10.3903 27.8203 0
rclavicle -8.96013e-14 -2.0455e-14 0
rhumerus -43.5595 -7.0636 -37.6574
rradius 87.3455 0 0
rwrist -19.1034 0 0
rhand -27.1999 -45.8673 0
rfingers 7.12502 0 0
rthumb -0.613141 -795.845 0
685
root 5.32016 16.4604 1.54696 14.6348 -29.704 0.202021
lfemur -43.014 25.9746 2.84724
ltibia 123.503 0 0
lfoot 22.4674 -22.4989 0
ltoes 15.5239 0 0
rfemur -30.9847 -8.17365 23.1766
rtibia 52.7613 0 0
rfoot -22.0629 -3.87068 0
rtoes 1.5742 0 0
lowerback 2.13391 -6.54214 -0.437915
upperback -1.75343 -8.75089 0.22851
thorax -2.88828 -4.3565 0.87
lowerneck -8.21181 -3.6349 0.579469
upperneck 3.12678 -5.06815 2.70169
head 2.47316 -2.43137 0.528455
lclavicle -9.00045e-14 -1.95023e-14 0
lhumerus 27.1138 -51.4377 33.5093
lradius 92.7822 0 0
lwrist 31.4971 0 0
lhand -16.0592 -2.07877 0
lfingers 7.12502 0 0
lthumb 10.1431 27.6549 0
rclavicle -9.00045e-14 -1.95023e-14 0
rhumerus -43.2814 -7.02374 -36.7741
rradius 88.116 0 0
rwrist -18.8576 0 0
rhand -27.4012 -45.695 0
rfingers 7.12502 0 0
rthumb -0.807514 -795.669 0
686
root 5.31461 16.5619 1.65554 14.4896 -30.8406 0.323757
lfemur -43.6917 25.4917 4.52544
ltibia 124.8 0 0
lfoot 22.2148 -21.874 0
ltoes 16.735 0 0
rfemur -29.2727 -7.57374 22.5462
rtibia 49.7771 0 0
rfoot -20.3463 -3.29434 0
rtoes 1.48855 0 0
lowerback 2.22068 -6.44047 -0.540169
upperback -1.75236 -8.62648 0.0582071
thorax -2.9468 -4.29383 0.758259
lowerneck -8.06288 -3.67384 0.556905
upperneck 3.23569 -5.12994 2.85462
head 2.49041 -2.45779 0.580787
lclavicle -8.9233e-14 -1.74858e-14 0
lhumerus 28.1539 -49.7818 31.3703
lradius 92.4151 0 0
lwrist 31.4795 0 0
lhand -16.4713 -2.37966 0
lfingers 7.12502 0 0
lthumb 9.74541 27.3704 0
rclavicle -8.9233e-14 -1.74858e-14 0
rhumerus -42.8913 -7.01092 -35.3322
rradius 89.2712 0 0
rwrist -18.4268 0 0
rhand -27.7657 -45.4123 0
rfingers 7.12502 0 0
rthumb -1.15948 -795.38 0
